<svg width="190" height="70" viewBox="0 0 190 70" fill="none" xmlns="http://www.w3.org/2000/svg">
<path d="M61.3796 31.0499C69.1347 22.7569 73.1129 22.0976 79.2701 31.0499C81.0075 33.6637 81.5607 35.1345 82.0654 37.7641C83.0286 44.8027 77.0449 40.5991 70.4299 37.7641C62.8699 40.5991 58.1869 45.3085 58.2115 38.0998C58.59 35.4028 59.471 33.7041 61.3796 31.0499Z" fill="#A7F3D0" stroke="#A7F3D0"/>
<path d="M10.1312 9.73247L16.6537 42.1284C17.6427 44.3286 18.4913 45.0959 20.94 44.9819C23.3286 44.6071 24.1662 43.8179 24.1081 40.6177C20.1493 22.8512 17.801 8.06576 16.281 6.20753C20.4125 5.6419 22.6949 5.668 26.7171 6.20753C30.6847 7.28129 32.5253 8.19648 35.1032 10.4039C38.652 14.0571 39.9509 16.2079 41.6258 20.1394C43.137 24.3618 43.6513 26.7441 43.303 31.05C42.4765 37.7258 40.7829 40.8661 34.7305 44.9819C30.0212 47.0742 27.1493 47.6202 21.4991 47.164C17.6895 46.3774 15.6142 45.7738 11.9948 44.4783C10.5019 44.6285 9.86158 44.9224 9.38574 46.1569C9.09755 46.8995 9.41176 47.4914 10.3175 48.6747C13.5503 50.3473 15.6354 51.0811 19.8218 52.0318C26.4273 52.834 30.1762 52.5823 36.9668 50.5211C44.3052 46.8933 47.3917 43.8705 50.7574 36.4213C52.1727 31.27 52.2912 28.2868 51.5028 22.8251C50.0646 17.6689 48.7078 14.975 45.1666 10.5717C42.2192 7.2486 40.2052 5.57498 35.4759 3.18616C31.0019 1.58008 28.3437 0.832037 22.6172 0.500488C17.371 0.713216 14.3689 1.28338 8.82667 3.68972C4.66469 5.86727 0.999614 10.0682 0.626886 11.5789C0.254159 13.0896 0.635354 14.4296 2.67683 14.936C4.39782 15.207 5.84493 15.2717 6.96308 13.9288C8.08122 12.586 9.05556 9.96002 10.1312 9.73247Z" fill="#FAF9F6" stroke="#FAF9F6"/>
<path d="M55.4158 21.986C56.659 21.2424 57.3833 21.076 58.7702 21.6503C59.9557 22.3295 60.5987 22.7502 61.5656 23.8324C62.52 25.1649 62.7567 25.9713 61.752 27.693C60.7749 29.0804 60.0827 29.4842 58.3975 29.0359C56.4688 28.3593 55.4193 27.9505 54.6703 26.1823C54.2441 23.9933 54.3657 23.0425 55.4158 21.986Z" fill="#A7F3D0" stroke="#A7F3D0"/>
<path d="M85.4199 22.3213C87.4699 23.832 85.753 26.3483 85.2336 27.0212C84.7142 27.6942 81.4333 29.8534 80.0155 28.0284C77.9097 25.6238 78.068 24.4708 80.0155 22.657C82.3069 20.6453 83.37 20.8106 85.4199 22.3213Z" fill="#A7F3D0"/>
<path d="M77.4065 14.9357C74.8348 14.2242 73.7066 14.7053 72.1885 16.95C71.2729 18.8169 70.9679 19.878 72.0021 21.6499C73.7318 23.7668 74.8864 23.7497 77.0338 22.657C78.5929 21.3647 78.9995 20.3593 79.2701 18.2928C79.3052 16.5288 78.9751 15.7474 77.4065 14.9357Z" fill="#A7F3D0"/>
<path d="M62.1251 21.9856C59.9255 18.6809 60.4479 16.2786 62.3115 15.2715C64.1751 14.2643 65.2687 14.4999 67.3432 15.9429C68.5546 17.2026 68.916 18.1004 68.834 20.1392C68.567 21.7573 68.1652 22.4884 66.7841 23.3285C64.9205 24.2083 63.8861 24.3691 62.1251 21.9856Z" fill="#A7F3D0"/>
<path d="M85.4199 22.3213C87.4699 23.832 85.753 26.3483 85.2336 27.0212C84.7142 27.6942 81.4333 29.8534 80.0155 28.0284C77.9097 25.6238 78.068 24.4708 80.0155 22.657C82.3069 20.6453 83.37 20.8106 85.4199 22.3213Z" stroke="#A7F3D0"/>
<path d="M77.4065 14.9357C74.8348 14.2242 73.7066 14.7053 72.1885 16.95C71.2729 18.8169 70.9679 19.878 72.0021 21.6499C73.7318 23.7668 74.8864 23.7497 77.0338 22.657C78.5929 21.3647 78.9995 20.3593 79.2701 18.2928C79.3052 16.5288 78.9751 15.7474 77.4065 14.9357Z" stroke="#A7F3D0"/>
<path d="M62.1251 21.9856C59.9255 18.6809 60.4479 16.2786 62.3115 15.2715C64.1751 14.2643 65.2687 14.4999 67.3432 15.9429C68.5546 17.2026 68.916 18.1004 68.834 20.1392C68.567 21.7573 68.1652 22.4884 66.7841 23.3285C64.9205 24.2083 63.8861 24.3691 62.1251 21.9856Z" stroke="#A7F3D0"/>
<path fill-rule="evenodd" clip-rule="evenodd" d="M97.7657 24.0354C94.8085 25.3267 93.8523 25.7139 90.8705 30.0781C87.8887 34.4423 89.7523 40.653 92.175 42.3315C94.5977 44.01 98.1385 45.8564 102.052 45.5207C105.965 45.185 104.187 45.3537 105.406 45.185C107.455 44.8119 108.447 44.5397 109.693 43.8422V44.8493C109.185 45.1466 108.727 45.2537 107.643 45.3529C106.546 45.5204 106.05 45.7573 105.034 46.1921L104.986 46.221C99.9855 49.2289 97.1781 50.9177 93.8522 55.9277C90.5157 60.9537 91.4367 65.1917 97.9521 67.8453C103.897 68.9499 107.084 68.5168 111.929 64.4883C116.774 60.4598 118.009 54.0732 117.892 45.8564C117.863 42.0253 119.238 40.6886 122.551 38.8066C124.021 41.425 123.788 40.6421 126.279 43.5065C128.769 46.3708 137.085 47.0778 143.61 41.3244C143.856 41.9055 143.883 42.2338 143.237 42.8351C136.304 46.6568 130.565 51.7313 127.397 55.592C124.229 59.4526 124.989 64.4492 129.819 67.1739C134.649 69.8986 143.185 68.953 147.523 60.6276C151.861 52.3022 150.452 50.0284 151.064 44.01C151.068 41.4819 152.62 40.9018 154.978 39.6458C155.401 39.5943 155.645 39.7611 156.096 40.4851C159.029 43.946 158.891 43.8024 164.296 45.6886C169.7 47.5748 175.816 45.0115 179.577 39.6458C181.514 34.6439 180.824 32.2577 177.9 28.3996C174.738 25.3531 172.682 24.3711 168.396 23.8675C164.109 23.364 159.506 25.3158 155.537 31.421C153.909 34.4407 152.66 35.7338 149.946 37.4637C149.631 33.1173 148.6 30.7564 147.151 27.5603C145.702 24.3642 139.493 21.6407 134.478 23.0283C128.699 24.2844 125.927 25.9423 122.551 32.0924C121.727 33.2941 120.512 34.3002 117.147 36.6244C117.029 33.0387 116.703 31.3187 115.097 28.3996C113.491 25.4805 109.517 22.613 105.034 22.6925C101.978 22.5425 100.419 22.9356 97.7657 24.0354ZM96.834 30.0781C99.1203 27.7226 100.722 26.8811 104.475 26.721C108.579 27.957 110.257 29.2296 110.811 33.7709C110.687 36.4992 110.296 37.8757 107.456 39.3101C104.553 40.3001 102.892 40.6404 99.8157 40.4851C96.8444 40.0752 95.5613 39.3282 94.7841 35.953C94.6709 33.5035 95.0566 32.2066 96.834 30.0781ZM112.488 49.8849C110.904 48.4903 109.89 48.5395 108.016 49.0457C103.688 51.1057 101.657 52.7441 99.0703 56.9348C97.6455 58.871 97.2273 59.943 97.9521 61.8026C98.8495 64.0098 100.092 63.9738 102.611 63.649C104.42 63.2868 105.272 62.876 106.525 61.8026C110.681 57.9771 111.075 57.2817 111.929 55.9277C113.44 53.1858 113.35 51.9254 112.488 49.8849ZM137.787 27.5603C134.932 27.8587 133.433 28.1328 131.637 29.5393C131.637 29.5393 126.925 32.8393 128.655 36.6244C129.602 39.6361 130.765 40.6075 134.478 40.4851C138.657 40.2112 140.775 39.5538 143.61 36.2534C144.713 34.7922 144.981 33.7499 143.61 30.7142C142.444 28.4063 141.419 27.4731 137.787 27.5603ZM131.078 59.753C131.647 57.463 134.619 54.2138 134.619 54.2138C140.347 47.209 142.759 46.5677 145.987 49.8496C147.787 53.319 145.322 56.2003 140.582 61.4316C138.655 63.1276 135.737 63.7815 135.737 63.7815C131.243 63.924 130.612 62.7922 131.078 59.753ZM171.89 29.0357C168.607 27.7458 166.782 27.2348 163.318 29.5393C163.318 29.5393 158.394 32.797 160.15 37.4637C161.497 40.8879 163.288 41.9442 168.722 41.9605C173.343 40.8176 175.066 39.3933 176.177 35.0784C176.189 32.8515 176.188 31.6022 171.89 29.0357Z" fill="#FAF9F6"/>
<path d="M105.034 46.1921C106.05 45.7573 106.546 45.5204 107.643 45.3529C108.727 45.2537 109.185 45.1466 109.693 44.8493V43.8422C108.447 44.5397 107.455 44.8119 105.406 45.185C104.187 45.3537 105.965 45.185 102.052 45.5207C98.1385 45.8564 94.5977 44.01 92.175 42.3315C89.7523 40.653 87.8887 34.4423 90.8705 30.0781C93.8523 25.7139 94.8085 25.3267 97.7657 24.0354C100.419 22.9356 101.978 22.5425 105.034 22.6925C109.517 22.613 113.491 25.4805 115.097 28.3996C116.703 31.3187 117.029 33.0387 117.147 36.6244C120.512 34.3002 121.727 33.2941 122.551 32.0924C125.927 25.9423 128.699 24.2844 134.478 23.0283C139.493 21.6407 145.702 24.3642 147.151 27.5603C148.6 30.7564 149.631 33.1173 149.946 37.4637C152.66 35.7338 153.909 34.4407 155.537 31.421C159.506 25.3158 164.109 23.364 168.396 23.8675C172.682 24.3711 174.738 25.3531 177.9 28.3996C180.824 32.2577 181.514 34.6439 179.577 39.6458C175.816 45.0115 169.7 47.5748 164.296 45.6886C158.891 43.8024 159.029 43.946 156.096 40.4851C155.645 39.7611 155.401 39.5943 154.978 39.6458C152.62 40.9018 151.068 41.4819 151.064 44.01C150.452 50.0284 151.861 52.3022 147.523 60.6276C143.185 68.953 134.649 69.8986 129.819 67.1739C124.989 64.4492 124.229 59.4526 127.397 55.592C130.565 51.7313 136.304 46.6568 143.237 42.8351C143.883 42.2338 143.856 41.9055 143.61 41.3244C137.085 47.0778 128.769 46.3708 126.279 43.5065C123.788 40.6421 124.021 41.425 122.551 38.8066C119.238 40.6886 117.863 42.0253 117.892 45.8564C118.009 54.0732 116.774 60.4598 111.929 64.4883C107.084 68.5168 103.897 68.9499 97.9521 67.8453C91.4367 65.1917 90.5157 60.9537 93.8522 55.9277C97.1781 50.9177 99.9855 49.2289 104.986 46.221M105.034 46.1921L104.986 46.221M105.034 46.1921C105.018 46.2018 105.002 46.2114 104.986 46.221M104.475 26.721C100.722 26.8811 99.1203 27.7226 96.834 30.0781C95.0566 32.2066 94.6709 33.5035 94.7841 35.953C95.5613 39.3282 96.8444 40.0752 99.8157 40.4851C102.892 40.6404 104.553 40.3001 107.456 39.3101C110.296 37.8757 110.687 36.4992 110.811 33.7709C110.257 29.2296 108.579 27.957 104.475 26.721ZM108.016 49.0457C109.89 48.5395 110.904 48.4903 112.488 49.8849C113.35 51.9254 113.44 53.1858 111.929 55.9277C111.075 57.2817 110.681 57.977 106.525 61.8026C105.272 62.876 104.42 63.2868 102.611 63.649C100.092 63.9738 98.8495 64.0099 97.9521 61.8026C97.2273 59.943 97.6455 58.871 99.0703 56.9348C101.657 52.7441 103.688 51.1057 108.016 49.0457ZM131.637 29.5393C133.433 28.1328 134.932 27.8587 137.787 27.5603C141.419 27.4731 142.444 28.4063 143.61 30.7142C144.981 33.7499 144.713 34.7922 143.61 36.2534C140.775 39.5538 138.657 40.2112 134.478 40.4851C130.765 40.6075 129.602 39.6361 128.655 36.6244C126.925 32.8393 131.637 29.5393 131.637 29.5393ZM134.619 54.2138C134.619 54.2138 131.647 57.463 131.078 59.753C130.612 62.7922 131.243 63.924 135.737 63.7815C135.737 63.7815 138.655 63.1276 140.582 61.4316C145.322 56.2003 147.787 53.319 145.987 49.8496C142.759 46.5677 140.347 47.209 134.619 54.2138ZM163.318 29.5393C166.782 27.2348 168.607 27.7458 171.89 29.0357C176.188 31.6022 176.189 32.8515 176.177 35.0784C175.066 39.3933 173.343 40.8176 168.722 41.9605C163.288 41.9442 161.497 40.8879 160.15 37.4637C158.394 32.797 163.318 29.5393 163.318 29.5393Z" stroke="#FAF9F6"/>
<path d="M186.799 40.1139C185.495 39.7782 183.631 39.4425 182.14 41.1211C180.649 42.7996 181.068 44.6689 183.258 45.821C185.448 46.9731 186.264 46.658 187.917 45.821C189.57 44.984 189.781 43.471 189.222 42.1282C188.663 40.7854 188.104 40.4496 186.799 40.1139Z" fill="#A7F3D0" stroke="#A7F3D0"/>
</svg>
